<svg width="510" height="712" xmlns="http://www.w3.org/2000/svg"><path fill="#ccf" d="M0 0h510v640H0z"/><g stroke="#000" stroke-width=".5" stroke-linejoin="round" stroke-linecap="round" fill="#cfc"><path d="M233-4v4h-1l-2 3v3l1 3-1 5 1 3 4 2 4 2 1-3 9-7 16-2 7-7 11 4h4l13-10zm91 0l6 15v5l-5 9-1 10-4 26-1 2-7 15-9 8-5 2-5-4-4-8-7-1-11-4 2-7-3-2-4-6-12-5-4 7-1 7-5 1 2 1 5 1-1 4-2 7v2l-11 15-11 2-11-9-6-22-2-21-3-18 1-13 1-8-9-8-3-2-2-1zM185-4l-2 2-5 6-7 2-3-1-8-9zm-40 0V6l-1 5-4 8-4-1h-6l-1 3 1 1h6l3 4h1l3 8-1 20-2 13-12 38-5 6-6-1-10 8-6 3-6-5-6-3-5 5-5 1-3 7-4 10-6 3-2 6-5 1-7 7-1 3v2l3 4 6-1h3l2 7 3 14-1 12-1 5-1 3h7l5-2 5 4 1-5v-3l5-2 4-3 7 9h8l7-1 3 2 19-3 5 2h4l2-8 3-3 5-2 3 3h7l-1 2 1 5 4-2 4 1 6 7 4-1-1 5 4 2 3 2-1-6 7-4 4 3 6 5 7-2 5-5 6 4v-6l5-1 6-4 4 2 3-12 11-4-1 20 11 3v1l3-2h8l-1 3 1 1v2l1 2 1 11-6 2-4 13 3 4-2 6 1 3 3 4 2 3h10l10-9h5l-1-7 4-2 1-1 7-3 8-1 12-9 9-6 2-2 4 3v4l1 1 2 3 8-8 18-4 3 2 8 5 3-3 6-4v-2l1-6 17-10 2-2-4-3-4-3v-1l-4-5-8-9-4-3-5 5-9-2 5 1-7-8-4-11-5-18-8-43-1-13-1-6 1-4-4-2 4-1-1-8 1-33V19l-1-14 2-9z"/><path d="M330 630l1-2h8v-3l2-5 4 5 3-2 8 3 5 4-1 5 2-1 4-4-2-6 6-1-2-5 3-6-3-5 6-7 2-3v-13l-1-4v-1l1-4h11l13 4 5 3-1-5v-4h6l5 1-3 4 2 4 3 6 2 2 1-1 4-3-1-3-5-2 3-3v-3l2 1 4 2v-1l-2-6-4-4 2-10h3l-1 5v6l5 1h1l2-4h3l2-2v4l4 1 7-2-2-3-5-3 4-2h5l2-2-3-1-5-1-3-3-1-5 1-2 5 3 6 2 2 3v-1l3-2v-1l4-2-2-1-1-2h-4l-2-1v-2l-4-2-2-4 7-1 4-1 4-4 1-2v-1h-6l-4-1-2-3h6l3-1 4-4h4v-4l2-2 1-2-4 1h-1l-3 1v2l-4-3h-3l2-3-2-4 7 2-1-5h-1l-1-3-4-2h5l3-1 4-1h4l1-3 3-6-2 1-4 2-5 2-4 1-1-1-2-2 3-3-2-2h4l3 2 4-4 1-3h-2l-4-3 3-3v-1h1l3-4 2-3 2 5 3-3 1-2 2 2h3l1-4v-2l1-3 3-4-3-3h-2l-5 4-1 5-2-2-5 3-2-1-1-7 11-1v-6l3-2 1-5h6l-1-1 2-3v-3l-2-2v-3h-4l-2-1v-10l-1 1v-7l1-2-1-2h-2l-2 4-5 7-5 7-2-4 6-11 1-2v-1l-1-1 2-5-3-4 3-7-3-3 3-2 2-4-2-3 3-3-2-2-1-2-1-5-1-5-1-5v-7l-3-3-2-6-2-7 4-4-1-5-1-4-1-2-2-3h-5l-3-4-1-1-1-2-1-3-3-1-2-1-2-3-4-9 3-8 7-3-5-6-6-4-6-3 4 1-2-5 6-3-2-7-1-2-1-3-1-5-3-3-1-2-5-11-15-24-1-3-2 2-17 10-1 6v2l-6 4-3 3-8-5-3-2-18 4-8 8-2-3-1-1v-4l-4-3-2 2-9 6-12 9-8 1-7 3-1 1-4 2 1 7h-5l-10 9h-10l-2-3-3-4-2 5-5 1-3 2-2 6-7 6 5 3-3 7 2 9-3 3-4 3 3 8-2 22 2 2v6l4 14-5 2-6-5-8 5 1 10 12 9-9 13-6 2 8 8 2 5v9l-5 13-14 9v3l3 5-4 5-2 6 2 4-3 1-2 2-4 5 1 6-5 3-1 5v1l5 2 2 6 3 5-2 11h5v7l14 9-4 5v6l5 1 3 3-7 3-5 8 4 3-1 4-2 6 10 2 1 6-5 10-4 7 1 4 1 2v3l10-2 12 9 6 1 4 2 6 3 5 8 7-2 11 1 4-2 9 3 2 5-7 5-2 2 2 2 6 2-1 6 4 2h5l7 9h3l6-8z"/><path d="M392 644l-1-2-3 1-2-2-1-1-1-3-1-8 6-3 5-3 1-3 4-2-4-4 2-11-4-4 3 1 3 5 2-2 3-2 2-2v4l2 3 2 4 3 1v-3l-2-3 1-3-2-2-2-3-2-5 2-3-3-4 2 1-2-2v-2l-5-3-13-4h-11l-1 4v1l1 4v13l-2 3-6 7 3 5-3 6 2 5-6 1 2 6-4 4-2 1 1-5-5-4-8-3-3 2-4-5-2 5v3h-8l-1 2v2l-6 8h-3l-7-9h-5l-4-2 1-6-6-2-2-2 2-2 7-5-2-5-9-3-4 2-11-1-7 2-5-8-6-3-4-2-6-1-12-9-10 2h-4l-9 9-14 10-6-3-9 5-4-4-2 7 4 2 8 8 1 11 9 4-3 5-2 4zm12-31l1-4-1-4-5 2 3 9 1 2 2-2z"/><path d="M227 586h4v-3l-1-2-1-4 4-7 5-10-1-6-10-2 2-6 1-4-4-3 5-8 7-3-3-3-5-1v-6l4-5-14-9v-7h-5l2-11-3-5-2-6-5-2v-1l1-5 5-3-1-6 4-5 2-2 3-1-2-4 2-6 4-5-3-5v-3l14-9 5-13v-9l-2-5-8-8 6-2 9-13-12-9-1-10 8-5 6 5 5-2-4-14v-6l-2-2 2-22-3-8 4-3 3-3-2-9 3-7-5-3 7-6 2-6 3-2 5-1 2-5-1-3 2-6-3-4 5-13 5-2-1-11-1-2v-2l-1-1 1-3h-8l-3 2v-1h-1l-10-3 1-20-11 4-3 12-4-2-6 4-5 1v6l-6-4-5 5-7 2-6-5-4-3-7 4 1 6-3-2-4-2 1-5-4 1-6-7-4-1-4 2-1-5 1-2h-7l-3-3-5 2-3 3-2 8h-4l-5-2-19 3-3-2-7 1h-8l-7-9-4 3-5 2v3l-1 5-5-4-5 2h-7 1l2 4 6 4 3 4 6 7-2 24-4 11 6 1h-5l-1 5 1-4-3 3 1 6-4 14-6 13-4 8-19 20-7 2-11-6-7-6-2 2v4l1 3 4 4-3 2v4l2 2v2l2 1 2 6 1 3 3 5 8-3 4 3 2-2h7l-3-3 2-5 8-1 14 6 13 19v4l1 7 2-2v4l-2-1 4 8 1 14-1 20-2 14-5 29-10 31-4 5-8 3-1 7-4 11 2 6-3 10-2 4-3 5 26 3 2-4 11-3v11l11 4 7 7 10-2v6l3 1 9-1 10 6 4-6 7 3 1 5 2 3 11 1 4 5-1 7 3 6 6 5v1h1l8-1 2 3 4 4 9-5 6 3 14-10z"/><path d="M200 644l2-4 3-5-9-4-1-11-8-8-4-2 2-7-2-3-8 1h-1v-1l-6-5-3-6 1-7-4-5-11-1-2-3-1-5-7-3-4 6-10-6-9 1-3-1v-6l-10 2-7-7-11-4v-11l-11 3-2 4-26-3 2 5-8 29-4 7 3-1v2l-5 1-1 6 4 3-3-2-10 32-3 5-6 6-3 3-2 4h1l-2 1z"/></g><path d="M215 159v12l-3-6zM147 41l1 2 11 1 2 3-8-1-4 9-6-11zm109 142h4l5 12-3 3-1-4-3-1 1 7-3 2-4-5 3 8-5 2-8-18 3-4zm85-90l8 2-4 10 2 17-2 4-10 1-4-6 1-3 4 2 5-2-6-16zm-6-25h10l6 4h-10zm7-6l6 2 4-2-5 6zm-5 27l4 3-5-1zm-61 308v2l8-3-8 7-1-2h-6zm33-29l3 4-6 7-2-2 5-4zm-41 79l3 3-6-2zm69-85l3-4 6 5 2-6 3 2h-3v6l-3 3 2-5zm3 124l1 8 3 1-2 3-2-3 2-5-4-1zm-106 8l-1-3 6 5 6-2 9 3-8-1-2 2zm13 139l-3-5 6 3zM67 329l13 3 6-2 2 4-2 11-6-8-9-3-3 4zm134 235l2-5 3 3-4-1v3l3 2zm-2-263l5-2v5l-3-2 1 3-2-3-1 3zm-73-81l1 5-5 2 5-5-4-4zm76 166l4-7 6 1 4 5-3 7-6 1zm6-22l3 2-2 3h-2l3-2zm2-14l4-6-2 5 4 1-9 3-3 6 1-6-3-3 4 3z" stroke="#000" stroke-width=".5" stroke-linejoin="round" stroke-linecap="round" fill="#ccf"/><g stroke-linejoin="round" stroke-linecap="round" fill="none"><path d="M224 98l-1 1-1 1-2-1-7-13-2-9-2-8-1-7-1-9-1-3 1-1-1-5-2-1h-3l-1-2-3-1-3-2-2-1h-4l-2-3-4-2 2-7-2-4-1-4-2-7-3-4-5 1-2-2-2 1m27 32l-4-2-7-17-5-7-4-3-10-4-11-7-1-2m148 96l-1-1 1-3 3-1 6-3 11-18v-5l2-8 2-4 1-7V30l1-6 1-2 4-4V8l-1-6-4-4-1-2m37 186l1-2 6-2 5 2 5-1 2-2 3 1 3-4 3-1 1 4 1 2 4 1 1 2 2 1 2 4 1 2 9 8 7 9 1 5 3 3 4 7 3 3v2l1 4 3 3v2l-4 8-2 2 1 4 3 1v2l2 2 1 6-4 2v2m0 0l1 3v4l-2 3 1 3 1 1 6 3 3 3 1 5 1 5 4 5 4 2 3 4v10l3 10 5 3 3 4 4 24 3 23-1 3-2 3-3 1-1 2 2 6-3 8 2 5h2m-30 5l-8-6-1-1-8-7-3-8-2-1v-3l-3-11 1-5-1-3-2-1 7-3 2-2h2l2-4h2l1-2 3 1 3-1 1-1h1m-130 38l-1-1 1-2 1 1 8-2 1-5 3-1 1-2 13 3v-1l-1-1 1-1 5 3 2-1 5 2 1 2v3l1 1 1 2-2 7 2 1v4l2 2 4 1h5l7 1 1 2 2-1 5 3v2l1 1 3-2 1 1 1-2 3-1v-1l3-1v-1l2-2h4l3-1 4 2 1 4 2-1 4 5h2l1 1-1 2 3 1 1 2 6-4 3 1 2 1 2-1 4 1 2-1v-1l2-1 1-1 2 1 1-3 2-1m0 0l1 1 3-2h3l2-3 3 2 1-1h9l6-2m2 0l2 1v2l-6 5 3 5-2 3v3l1 3v2l-3 2-2 7 3 3-1 3 1 3h3l1 2v1l2 2v3h3l1 3-1 4-7 9 1 3v1l-9 4v4l-2 6 1 3-5 3-1 4 1 1h2M303 391l-3-3v-2l7-16v-2l-2-3 1-6 2-3 2-7 2-3 4-8 1-7 3-3v-5l4-11v-10l-1-1-1-2 1-6 4-2 2-3-1-4 1-3 8-4 1-1v-11l-3-4v-4l-3-3-1-2 3-9v-5l3-5-1-5-2-2v-4m0 0l-1-4-3-4 1-6 6-2 1-2 3-2 6-7 5-4h3l4-2 1-2v-3l2-2m-50 164l-3-3-1-2-6-2-5-1-1-4-1-6-13-7-2-3-4-4v-2l-2-2v-4l5-7v-2l2-4h3l1-1 1-4v-1l-6-1-3-1h-3l-4-6-6-2-10 8-13-3v-2l-3-2-2-4-2-5-1-3 2-6-1-7-3-4v-2m0 1l-6 3-2 4-4 1-3-2-2 1-3 3-8 2-2-1-4-3h-4l-2-2v-2l-1-3-4-8v-2h2m115 152l-2-1-7-2-7 4-3-2h-5l-3 1-3 5-5-2h-5l-6 3-2 2-5 2-6-2-11-3-2-3-3-1h-7l-7 9-3 1v2l-4 6-10 5-6 4-4 10-3 4-1 5-5 7-7 6v1l1 1m132-61l-1-1-2-1m62-210l2-4 1-3-4-7-11-13-4-7-1-7-2-3-12-9-11-10-2-3-2-6h-5l-6-3-6-13m-1-1l-6-6-2-5-2-2-5-2-4-2-11-2-11 4-5-1-1 1-3 4v3l-1 3-6 5-3 5-2 5-5 3h-3l-5-3-1-2M23 644l2-3h21l8-10 2-16-1-3 1-10-1-2-10-4-3-4 12-14 2-14-4-8-2-1-1-2 2-6-2-3 3-4-1-4 3-3 2-5 1-3-2-8 3-7 1-3 7-8 3-1 1-1 4-9 1-1 3-3 5-3 8-15 1-6 4-3-1-6-6-4-4-5 3-17 1-20 5-4v-4l7-6 1-4m34 257v-10l-1-6 2-5-8-4-5-1h-1l2-6 3-4-2-7-1-4 2-2 2-7 3-2 2-2 6-3 5 1 2-2 1-5 2-4 3-6 3-4 4 1 5-4 7-7 1-21 4-8 2-1 3-6 3-8 2-6 1-6-1-7-15-35m-1-1l-4-5-5-1-6-5-4-8-2-1-3-3-6-2-1-4 2-2-1-2 1-3-4-6 1-5-3-4h-4l-5 3h-2l-13 2-7-3v-6l-3-7v-6l-10-7-5-18-1-5 3-5 3-12 1-8-1-6v-5l2-14-3-25-3-7 2-8m1 0l6-1 3-3 2 1 3-2h2l7-3 2 1 3 4h1l2-1 4-3 12 2 6-3 9-3 6-8 4 1 3-3 9-1 13-3m0 0l2-1 4-11 3-3-2-8 3-2v-3l5-11 1-6-1-2-2-4v-4l-1-2-3-3-4-1h-3l-2-1-2-6-10-9-2-6 7-10m1-1l12-16 1-14 3-2 5-2 3-8 4-4 2-1 8 1m-84 535l-1-1h-2l-5 5-8 2-2-1-3 1-5 4m-3 0l-3-1h-3l-1-2-4-1-3-3-3 2h-1l-4-4-4-2-3-5h-8l-4-3-3-4-7-6m178 29l-1-1-10-2-1-1h-2l-1 3-2 1m-19 0l-1-1-4-1-3 2m-5 0l-2-4-3-1-3-3-15-1-2 3h-3l-3 2v4m147-142v-3l-2-1-12-1-14-3h-3l-2 2h-8l-2-2-1 1 1 2-1 1h-5l-4-1-4 1-2-1-3-1-3-3-3-1-6 4-4 1-1 2h-3l-2 4-7-2-4-3-3-1-3 5h-1l-1-2-3-1-2-3-3-2-1 1h-1M87 359l-4-2-4-7-3-4-9-8h-2l-10-3-2 1-3-1-4 8m253 129l1-2 4-1h5l6-1 10 8 2 1 3 3h7l2 2 3-1 2 2 3-1 1 3v1l2 2 1 4 2 2 1 2 1-1 1 1h2l6-3 4-3 4-1 8-1h1l2-1 3 1 4 3 2 3 1 4 3 3v4l10 3 2-1 4 3v2l10-4v-5l-1-1-1-1 1-1 2 2v3l3 3h2l1 1 5-2h8l4-2 2-1 3-2m-67 142l1-3-7-8v-2l1-2 5-1 3-1 3-4 3-1 2-7v-13l-7-3v-1l1-1 1 1m-85-5v1l1 4 6-2 1 3 1 1 2-2 3 1 4-2h4l1-4-2-2 1-5-2-2v-3l1-2 2-1 2-4 4 2h5l2-1 3 2-1 5 3 9v3l8-2 3-1h5l7-1 2 2v4h8l2 1 3 1 1-1h4m1 1h1l2-1 2-4-8-19 1-5 2-1 3 1 5-4h2l2 2 1 4 6 1h3l7 5h1l1-1-1-3 2-2-2-4 3-4-1-6-1-4-1-1m1 1h2l4 3 7 2 3 2 2-1 2-1 1-4-2-5v-7l4-6 3-3 4-14 4-9v-6l-2-2M290 644l5-13 9-33 13-45-1-13-3-10-12-16-2-5 2-8 4-8 7-28-1-26-2-8-3-20v-14l-2-5m-1-1l-3-3v-2l7-19 6-10 7-22v-15l2-3 3-4 1-4 5-30-1-23 4-12v-10l20-36 4-11 4-6m-57 463l1-4 6-10 2-10-1-3-3-4-6-2-3-2-1-2 1-5 2-1v-3l2-4m0-1l-4-15-2-3 1-3 3-3-1-4v-5l4-14v-10l-4-11-2-1-4-10 1-4 4-8m0-3l-1-19-1-8m0 0l7-23 3-16-3-22v-15l-2-4" stroke="#006400" stroke-width="2.5"/><path d="M91 264h-1l-4-1-2-2 1-6-1-8 1-9-1-16-3-7h-2l-4-3-1-2-6-5-1-3-1-5 3-13v-6l-2-8-1-2h-1l1-2-1-3-2-2-1-1-4 1-5-2v-1l-1-3v-2l6-4 2-3h5v-2l1-1v-2l3-2 3-3 1-1-1-1 1-3 2-1 1-4 3-6 4-2h1l2-2 3-2h2l5 3 1 1 2 2 3 1 4-1 6-6 5-3h1l3 3 5-5 7 1 5-1 10 2 7-6 11-4 2 1-1 4-2 6-1 7 2 7 11 17 3 3h1l1-1" stroke="#dc143c" stroke-width="5"/></g><g stroke="#000" stroke-width=".7" fill="#fff"><circle cx="91" cy="264" r="5"/><circle cx="182" cy="146" r="5"/></g><path fill="#fff" d="M0 640h510v72H0z"/><path d="M268 688h234v16H268z"/><text x="385" y="678" font-family="Helvetica" font-size="40" text-anchor="middle">100km</text></svg>